<svg xmlns="http://www.w3.org/2000/svg" viewBox="0 0 24 24"><path d="M6 22C5.45 22 4.97917 21.8042 4.5875 21.4125C4.19583 21.0208 4 20.55 4 20V4C4 3.45 4.19583 2.97917 4.5875 2.5875C4.97917 2.19583 5.45 2 6 2H14L20 8V20C20 20.55 19.8042 21.0208 19.4125 21.4125C19.0208 21.8042 18.55 22 18 22H6ZM13 9V4H6V20H18V9H13Z"/><path d="M7 17H8V15H9C9.28333 15 9.52083 14.9042 9.7125 14.7125C9.90417 14.5208 10 14.2833 10 14V13C10 12.7167 9.90417 12.4792 9.7125 12.2875C9.52083 12.0958 9.28333 12 9 12H7V17ZM8 14V13H9V14H8ZM11 17H13C13.2833 17 13.5208 16.9042 13.7125 16.7125C13.9042 16.5208 14 16.2833 14 16V13C14 12.7167 13.9042 12.4792 13.7125 12.2875C13.5208 12.0958 13.2833 12 13 12H11V17ZM12 16V13H13V16H12ZM15 17H16V15H17V14H16V13H17V12H15V17Z"/></svg>